<?xml version="1.0" encoding="utf-8"?>
<svg viewBox="0 0 900 100" xmlns="http://www.w3.org/2000/svg" xmlns:bx="https://boxy-svg.com">
  <rect width="900" height="100" style="fill: rgb(218, 41, 28);" bx:origin="0 0"/>
  <path d="M 149.453 58.226 Q 151.378 58.891 153.041 59.206 Q 154.703 59.521 156.383 59.521 Q 158.868 59.521 159.883 58.804 Q 160.898 58.086 160.898 56.896 Q 160.898 55.881 160.303 55.234 Q 159.708 54.586 158.781 54.236 Q 157.853 53.886 156.208 53.466 Q 153.863 52.871 152.411 52.224 Q 150.958 51.576 149.908 50.141 Q 148.858 48.706 148.858 46.291 Q 148.858 42.686 151.168 40.691 Q 153.478 38.696 157.713 38.696 Q 159.463 38.696 161.266 39.046 Q 163.068 39.396 164.608 40.061 L 164.608 44.611 Q 162.683 43.771 161.003 43.439 Q 159.323 43.106 157.818 43.106 Q 155.648 43.106 154.738 43.859 Q 153.828 44.611 153.828 45.871 Q 153.828 47.026 154.476 47.726 Q 155.123 48.426 156.086 48.794 Q 157.048 49.161 158.763 49.581 Q 161.003 50.141 162.438 50.754 Q 163.873 51.366 164.871 52.749 Q 165.868 54.131 165.868 56.511 Q 165.868 60.046 163.418 61.971 Q 160.968 63.896 156.453 63.896 Q 154.913 63.896 153.058 63.634 Q 151.203 63.371 149.453 62.846 L 149.453 58.226 Z M 179.862 63.896 Q 175.522 63.896 173.282 61.481 Q 171.042 59.066 171.042 54.551 Q 171.042 49.546 173.44 46.746 Q 175.837 43.946 180.352 43.946 Q 184.482 43.946 186.512 46.361 Q 188.542 48.776 188.542 53.361 Q 188.542 54.656 188.437 55.601 L 174.122 55.601 L 174.122 52.276 L 185.322 52.276 L 183.852 53.851 Q 183.817 51.646 183.485 50.421 Q 183.152 49.196 182.33 48.619 Q 181.507 48.041 180.037 48.041 Q 177.762 48.041 176.765 49.389 Q 175.767 50.736 175.767 53.921 Q 175.767 57.141 176.87 58.471 Q 177.972 59.801 180.527 59.801 Q 182.067 59.801 183.87 59.399 Q 185.672 58.996 187.142 58.331 L 187.142 62.321 Q 185.602 63.091 183.642 63.494 Q 181.682 63.896 179.862 63.896 Z M 201.947 39.991 L 201.947 56.091 Q 201.947 58.016 202.822 58.856 Q 203.697 59.696 205.797 59.696 Q 207.967 59.696 210.067 58.891 L 210.067 62.951 Q 208.877 63.406 207.547 63.651 Q 206.217 63.896 204.957 63.896 Q 201.212 63.896 199.304 61.919 Q 197.397 59.941 197.397 56.721 L 197.397 47.551 L 201.422 44.296 L 210.067 44.296 L 210.067 48.111 L 193.337 48.111 L 193.337 45.101 L 197.397 44.296 L 198.167 39.991 Z M 220.916 56.861 Q 220.916 58.506 221.546 59.241 Q 222.176 59.976 223.646 59.976 Q 225.186 59.976 226.376 59.066 Q 227.566 58.156 229.246 55.776 L 229.736 58.366 Q 228.371 61.026 226.411 62.461 Q 224.451 63.896 222.071 63.896 Q 219.341 63.896 217.853 62.304 Q 216.366 60.711 216.366 57.701 L 216.366 44.296 L 220.916 44.296 L 220.916 56.861 Z M 232.641 63.546 L 228.931 63.546 L 228.056 58.261 L 228.056 44.296 L 232.641 44.296 Z M 238.695 70.196 L 238.695 44.296 L 242.405 44.296 L 243.35 49.616 L 242.37 49.091 Q 243.175 46.571 244.767 45.259 Q 246.36 43.946 248.67 43.946 Q 252.03 43.946 253.902 46.519 Q 255.775 49.091 255.775 53.746 Q 255.775 58.541 253.902 61.219 Q 252.03 63.896 248.67 63.896 Q 246.5 63.896 244.96 62.776 Q 243.42 61.656 242.615 59.556 L 243.245 58.856 L 243.245 70.196 Z M 247.2 48.076 Q 245.065 48.076 244.155 49.371 Q 243.245 50.666 243.245 53.746 Q 243.245 57.001 244.155 58.384 Q 245.065 59.766 247.2 59.766 Q 249.3 59.766 250.175 58.471 Q 251.05 57.176 251.05 54.096 Q 251.05 50.841 250.175 49.459 Q 249.3 48.076 247.2 48.076 Z M 298.928 48.741 L 298.928 52.941 L 286.503 52.941 L 286.503 48.741 Z M 286.503 59.346 L 300.083 59.346 L 300.083 63.546 L 284.123 63.546 L 284.123 39.046 L 300.083 39.046 L 300.083 43.246 L 286.503 43.246 L 288.883 41.146 L 288.883 61.446 Z M 312.402 53.886 L 317.757 44.296 L 323.252 44.296 L 316.182 55.146 L 316.147 52.661 L 323.532 63.546 L 318.037 63.546 Z M 312.122 52.661 L 312.087 55.146 L 305.017 44.296 L 310.547 44.296 L 315.902 53.886 L 310.267 63.546 L 304.737 63.546 Z M 336.237 63.896 Q 332.247 63.896 330.042 61.411 Q 327.837 58.926 327.837 54.481 Q 327.837 49.511 330.217 46.729 Q 332.597 43.946 336.902 43.946 Q 340.857 43.946 343.079 46.414 Q 345.302 48.881 345.302 53.326 Q 345.302 58.331 342.922 61.114 Q 340.542 63.896 336.237 63.896 Z M 336.552 59.696 Q 338.022 59.696 338.897 59.136 Q 339.772 58.576 340.157 57.299 Q 340.542 56.021 340.542 53.886 Q 340.542 51.751 340.139 50.509 Q 339.737 49.266 338.879 48.706 Q 338.022 48.146 336.552 48.146 Q 335.082 48.146 334.207 48.706 Q 333.332 49.266 332.947 50.526 Q 332.562 51.786 332.562 53.921 Q 332.562 56.091 332.964 57.334 Q 333.367 58.576 334.224 59.136 Q 335.082 59.696 336.552 59.696 Z M 351.356 58.191 Q 354.856 59.696 358.251 59.696 Q 360.211 59.696 361.051 59.259 Q 361.891 58.821 361.891 58.051 Q 361.891 57.386 361.401 56.966 Q 360.911 56.546 360.158 56.301 Q 359.406 56.056 358.076 55.741 Q 355.976 55.286 354.611 54.744 Q 353.246 54.201 352.266 53.046 Q 351.286 51.891 351.286 49.966 Q 351.286 47.131 353.333 45.539 Q 355.381 43.946 359.021 43.946 Q 360.666 43.946 362.381 44.261 Q 364.096 44.576 365.881 45.241 L 365.881 49.406 Q 364.236 48.776 362.451 48.461 Q 360.666 48.146 359.196 48.146 Q 357.446 48.146 356.711 48.601 Q 355.976 49.056 355.976 49.826 Q 355.976 50.526 356.466 50.964 Q 356.956 51.401 357.743 51.646 Q 358.531 51.891 359.861 52.171 Q 361.961 52.661 363.326 53.169 Q 364.691 53.676 365.653 54.831 Q 366.616 55.986 366.616 57.946 Q 366.616 60.781 364.516 62.339 Q 362.416 63.896 358.601 63.896 Q 356.711 63.896 354.926 63.529 Q 353.141 63.161 351.356 62.356 L 351.356 58.191 Z M 385.34 51.961 Q 385.34 49.861 384.5 48.969 Q 383.66 48.076 381.77 48.076 Q 380.195 48.076 379.267 48.671 Q 378.34 49.266 377.937 50.526 Q 377.535 51.786 377.535 53.921 Q 377.535 57.071 378.55 58.384 Q 379.565 59.696 382.085 59.696 Q 383.73 59.696 385.497 59.189 Q 387.265 58.681 388.805 57.701 L 388.805 61.971 Q 385.655 63.896 381.805 63.896 Q 377.36 63.896 375.085 61.446 Q 372.81 58.996 372.81 54.446 Q 372.81 49.441 375.172 46.694 Q 377.535 43.946 381.945 43.946 Q 384.5 43.946 386.285 44.909 Q 388.07 45.871 388.98 47.656 Q 389.89 49.441 389.89 51.961 L 385.34 51.961 Z M 401.159 63.896 Q 398.254 63.896 396.749 62.461 Q 395.244 61.026 395.244 58.471 Q 395.244 54.971 398.149 53.169 Q 401.054 51.366 407.319 51.366 L 407.354 54.376 Q 404.659 54.376 403.049 54.726 Q 401.439 55.076 400.704 55.794 Q 399.969 56.511 399.969 57.631 Q 399.969 58.716 400.634 59.311 Q 401.299 59.906 402.699 59.906 Q 403.994 59.906 404.974 59.381 Q 405.954 58.856 406.479 57.894 Q 407.004 56.931 407.004 55.671 L 407.004 51.576 Q 407.004 49.616 406.129 48.741 Q 405.254 47.866 403.259 47.866 Q 401.719 47.866 400.196 48.251 Q 398.674 48.636 397.064 49.441 L 397.064 45.416 Q 401.019 43.946 404.239 43.946 Q 407.739 43.946 409.664 45.714 Q 411.589 47.481 411.589 50.666 L 411.589 59.906 L 411.309 56.791 L 412.534 63.546 L 408.054 63.546 L 407.214 58.996 L 408.054 59.591 Q 407.004 61.761 405.306 62.829 Q 403.609 63.896 401.159 63.896 Z M 429.998 63.896 Q 426.533 63.896 424.748 61.849 Q 422.963 59.801 422.963 55.881 L 422.963 40.166 L 424.468 41.671 L 417.258 41.671 L 417.258 37.646 L 427.513 37.646 L 427.513 55.601 Q 427.513 57.736 428.336 58.716 Q 429.158 59.696 430.978 59.696 Q 432.028 59.696 433.078 59.416 Q 434.128 59.136 435.038 58.576 L 435.038 62.706 Q 432.693 63.896 429.998 63.896 Z M 448.652 63.896 Q 444.312 63.896 442.072 61.481 Q 439.832 59.066 439.832 54.551 Q 439.832 49.546 442.23 46.746 Q 444.627 43.946 449.142 43.946 Q 453.272 43.946 455.302 46.361 Q 457.332 48.776 457.332 53.361 Q 457.332 54.656 457.227 55.601 L 442.912 55.601 L 442.912 52.276 L 454.112 52.276 L 452.642 53.851 Q 452.607 51.646 452.275 50.421 Q 451.942 49.196 451.12 48.619 Q 450.297 48.041 448.827 48.041 Q 446.552 48.041 445.555 49.389 Q 444.557 50.736 444.557 53.921 Q 444.557 57.141 445.66 58.471 Q 446.762 59.801 449.317 59.801 Q 450.857 59.801 452.66 59.399 Q 454.462 58.996 455.932 58.331 L 455.932 62.321 Q 454.392 63.091 452.432 63.494 Q 450.472 63.896 448.652 63.896 Z M 497.861 49.126 Q 497.861 45.906 496.828 44.506 Q 495.796 43.106 493.591 43.106 Q 491.876 43.106 490.861 43.929 Q 489.846 44.751 489.391 46.536 Q 488.936 48.321 488.936 51.296 Q 488.936 54.341 489.408 56.109 Q 489.881 57.876 491.018 58.681 Q 492.156 59.486 494.116 59.486 Q 495.866 59.486 497.668 58.856 Q 499.471 58.226 501.221 57.001 L 501.221 61.516 Q 499.296 62.671 497.336 63.284 Q 495.376 63.896 493.346 63.896 Q 490.406 63.896 488.306 62.479 Q 486.206 61.061 485.086 58.401 Q 483.966 55.741 483.966 52.031 Q 483.966 47.866 485.156 44.856 Q 486.346 41.846 488.586 40.271 Q 490.826 38.696 493.906 38.696 Q 496.566 38.696 498.578 39.939 Q 500.591 41.181 501.711 43.526 Q 502.831 45.871 502.831 49.126 L 497.861 49.126 Z M 507.975 39.046 L 512.735 39.046 L 512.735 60.851 L 511.265 59.346 L 524.845 59.346 L 524.845 63.546 L 507.975 63.546 Z M 535.764 40.901 L 540.524 40.901 L 540.524 61.586 L 535.764 61.586 Z M 529.884 59.346 L 546.404 59.346 L 546.404 63.546 L 529.884 63.546 Z M 529.884 39.046 L 546.404 39.046 L 546.404 43.246 L 529.884 43.246 Z M 583.117 63.896 Q 578.357 63.896 575.82 60.799 Q 573.282 57.701 573.282 52.031 Q 573.282 47.866 574.665 44.856 Q 576.047 41.846 578.567 40.271 Q 581.087 38.696 584.517 38.696 Q 586.407 38.696 588.105 39.134 Q 589.802 39.571 591.517 40.341 L 591.517 44.856 Q 589.697 44.016 587.772 43.561 Q 585.847 43.106 584.237 43.106 Q 582.102 43.106 580.807 43.929 Q 579.512 44.751 578.9 46.536 Q 578.287 48.321 578.287 51.296 Q 578.287 54.341 578.795 56.109 Q 579.302 57.876 580.492 58.681 Q 581.682 59.486 583.817 59.486 Q 585.112 59.486 586.355 59.154 Q 587.597 58.821 588.857 58.191 L 587.877 60.151 L 587.877 53.151 L 589.417 54.656 L 583.082 54.656 L 583.082 50.666 L 592.392 50.666 L 592.392 60.851 Q 590.642 62.216 588.21 63.056 Q 585.777 63.896 583.117 63.896 Z M 604.186 46.816 L 605.691 48.321 L 598.831 48.321 L 598.831 44.296 L 608.736 44.296 L 608.736 61.761 L 604.186 61.761 Z M 597.606 59.521 L 613.706 59.521 L 613.706 63.546 L 597.606 63.546 Z M 608.876 34.216 L 608.876 39.746 L 603.626 39.746 L 603.626 34.216 Z M 627.53 39.991 L 627.53 56.091 Q 627.53 58.016 628.405 58.856 Q 629.28 59.696 631.38 59.696 Q 633.55 59.696 635.65 58.891 L 635.65 62.951 Q 634.46 63.406 633.13 63.651 Q 631.8 63.896 630.54 63.896 Q 626.795 63.896 624.888 61.919 Q 622.98 59.941 622.98 56.721 L 622.98 47.551 L 627.005 44.296 L 635.65 44.296 L 635.65 48.111 L 618.92 48.111 L 618.92 45.101 L 622.98 44.296 L 623.75 39.991 Z M 653.745 39.046 L 658.505 39.046 L 658.505 63.546 L 653.745 63.546 Z M 641.775 39.046 L 646.535 39.046 L 646.535 63.546 L 641.775 63.546 Z M 644.505 48.741 L 655.845 48.741 L 655.845 52.941 L 644.505 52.941 Z M 668.899 56.861 Q 668.899 58.506 669.529 59.241 Q 670.159 59.976 671.629 59.976 Q 673.169 59.976 674.359 59.066 Q 675.549 58.156 677.229 55.776 L 677.719 58.366 Q 676.354 61.026 674.394 62.461 Q 672.434 63.896 670.054 63.896 Q 667.324 63.896 665.836 62.304 Q 664.349 60.711 664.349 57.701 L 664.349 44.296 L 668.899 44.296 L 668.899 56.861 Z M 680.624 63.546 L 676.914 63.546 L 676.039 58.261 L 676.039 44.296 L 680.624 44.296 Z M 696.583 43.946 Q 699.908 43.946 701.763 46.501 Q 703.618 49.056 703.618 53.501 Q 703.618 58.541 700.94 61.219 Q 698.263 63.896 692.908 63.896 Q 691.438 63.896 689.775 63.704 Q 688.113 63.511 686.713 63.196 L 686.713 37.646 L 691.263 37.646 L 691.263 48.426 L 690.738 47.901 Q 691.578 45.976 693.065 44.961 Q 694.553 43.946 696.583 43.946 Z M 695.148 48.076 Q 693.153 48.076 692.208 49.441 Q 691.263 50.806 691.263 53.886 L 691.263 61.096 L 690.283 59.451 Q 691.508 59.766 693.083 59.766 Q 695.218 59.766 696.478 59.171 Q 697.738 58.576 698.315 57.246 Q 698.893 55.916 698.893 53.641 Q 698.893 50.736 698.035 49.406 Q 697.178 48.076 695.148 48.076 Z M 733.996 54.796 L 745.581 54.796 L 745.581 58.996 L 733.996 58.996 Z M 730.076 63.546 Q 731.161 57.246 732.981 50.771 Q 734.801 44.296 737.006 39.046 L 742.431 39.046 Q 744.636 44.191 746.474 50.649 Q 748.311 57.106 749.396 63.546 L 744.426 63.546 Q 743.341 57.281 742.186 52.451 Q 741.031 47.621 739.421 42.791 L 740.051 42.791 Q 738.441 47.656 737.286 52.486 Q 736.131 57.316 735.046 63.546 L 730.076 63.546 Z M 766.125 51.961 Q 766.125 49.861 765.285 48.969 Q 764.445 48.076 762.555 48.076 Q 760.98 48.076 760.053 48.671 Q 759.125 49.266 758.723 50.526 Q 758.32 51.786 758.32 53.921 Q 758.32 57.071 759.335 58.384 Q 760.35 59.696 762.87 59.696 Q 764.515 59.696 766.283 59.189 Q 768.05 58.681 769.59 57.701 L 769.59 61.971 Q 766.44 63.896 762.59 63.896 Q 758.145 63.896 755.87 61.446 Q 753.595 58.996 753.595 54.446 Q 753.595 49.441 755.958 46.694 Q 758.32 43.946 762.73 43.946 Q 765.285 43.946 767.07 44.909 Q 768.855 45.871 769.765 47.656 Q 770.675 49.441 770.675 51.961 L 766.125 51.961 Z M 784.325 39.991 L 784.325 56.091 Q 784.325 58.016 785.2 58.856 Q 786.075 59.696 788.175 59.696 Q 790.345 59.696 792.445 58.891 L 792.445 62.951 Q 791.255 63.406 789.925 63.651 Q 788.595 63.896 787.335 63.896 Q 783.59 63.896 781.682 61.919 Q 779.775 59.941 779.775 56.721 L 779.775 47.551 L 783.8 44.296 L 792.445 44.296 L 792.445 48.111 L 775.715 48.111 L 775.715 45.101 L 779.775 44.296 L 780.545 39.991 Z M 805.779 46.816 L 807.284 48.321 L 800.424 48.321 L 800.424 44.296 L 810.329 44.296 L 810.329 61.761 L 805.779 61.761 Z M 799.199 59.521 L 815.299 59.521 L 815.299 63.546 L 799.199 63.546 Z M 810.469 34.216 L 810.469 39.746 L 805.219 39.746 L 805.219 34.216 Z M 829.018 63.896 Q 825.028 63.896 822.823 61.411 Q 820.618 58.926 820.618 54.481 Q 820.618 49.511 822.998 46.729 Q 825.378 43.946 829.683 43.946 Q 833.638 43.946 835.86 46.414 Q 838.083 48.881 838.083 53.326 Q 838.083 58.331 835.703 61.114 Q 833.323 63.896 829.018 63.896 Z M 829.333 59.696 Q 830.803 59.696 831.678 59.136 Q 832.553 58.576 832.938 57.299 Q 833.323 56.021 833.323 53.886 Q 833.323 51.751 832.92 50.509 Q 832.518 49.266 831.66 48.706 Q 830.803 48.146 829.333 48.146 Q 827.863 48.146 826.988 48.706 Q 826.113 49.266 825.728 50.526 Q 825.343 51.786 825.343 53.921 Q 825.343 56.091 825.745 57.334 Q 826.148 58.576 827.005 59.136 Q 827.863 59.696 829.333 59.696 Z M 855.372 50.981 Q 855.372 49.336 854.742 48.601 Q 854.112 47.866 852.642 47.866 Q 851.102 47.866 849.912 48.776 Q 848.722 49.686 847.042 52.066 L 846.552 49.476 Q 847.917 46.816 849.877 45.381 Q 851.837 43.946 854.217 43.946 Q 856.947 43.946 858.434 45.539 Q 859.922 47.131 859.922 50.141 L 859.922 63.546 L 855.372 63.546 L 855.372 50.981 Z M 843.647 44.296 L 847.357 44.296 L 848.232 49.581 L 848.232 63.546 L 843.647 63.546 Z" style="fill: rgb(255, 255, 255); white-space: pre;"/>
  <path d="M 71.609 20 L 37.056 80 L 41.878 80 L 71.609 28.572 L 71.609 37.142 L 46.967 80 L 51.789 80 L 71.609 45.714 L 71.609 54.285 L 56.609 80 L 61.699 80 L 71.609 62.856 L 71.609 71.427 L 66.52 80 L 106.163 80 L 71.609 20 Z" fill="#fff" style=""/>
</svg>